<svg width="32" height="32" xmlns="http://www.w3.org/2000/svg">

 <g>
  <title>background</title>
  <rect fill="none" id="canvas_background" height="402" width="582" y="-1" x="-1"/>
 </g>
 <g>
  <title>Layer 1</title>
  <path id="svg_2" fill="#fbb713" d="m16,0c-8.837,0 -16,7.163 -16,16c0,8.836 7.163,16 16,16s16,-7.164 16,-16c0,-8.837 -7.163,-16 -16,-16z"/>
  <path id="svg_3" fill="#FFFFFF" d="m13.69,24.903l3.679,0l0,-8.904l2.454,0l0.325,-3.068l-2.779,0l0.004,-1.536c0,-0.8 0.076,-1.229 1.224,-1.229l1.534,0l0,-3.069l-2.455,0c-2.949,0 -3.986,1.489 -3.986,3.992l0,1.842l-1.838,0l0,3.069l1.838,0l0,8.903z"/>
 </g>
</svg>