<?xml version="1.0" encoding="UTF-8" standalone="no"?>
<!-- Created with Inkscape (http://www.inkscape.org/) -->

<svg
   xmlns:dc="http://purl.org/dc/elements/1.1/"
   xmlns:cc="http://creativecommons.org/ns#"
   xmlns:rdf="http://www.w3.org/1999/02/22-rdf-syntax-ns#"
   xmlns:svg="http://www.w3.org/2000/svg"
   xmlns="http://www.w3.org/2000/svg"
   xmlns:sodipodi="http://sodipodi.sourceforge.net/DTD/sodipodi-0.dtd"
   xmlns:inkscape="http://www.inkscape.org/namespaces/inkscape"
   width="210mm"
   height="297mm"
   viewBox="0 0 210 297"
   version="1.1"
   id="svg8"
   inkscape:version="0.92.3 (2405546, 2018-03-11)"
   sodipodi:docname="Wind2.svg">
  <defs
     id="defs2" />
  <sodipodi:namedview
     id="base"
     pagecolor="#ffffff"
     bordercolor="#666666"
     borderopacity="1.0"
     inkscape:pageopacity="0.0"
     inkscape:pageshadow="2"
     inkscape:zoom="0.35"
     inkscape:cx="-100"
     inkscape:cy="560"
     inkscape:document-units="mm"
     inkscape:current-layer="layer1"
     showgrid="false"
     inkscape:window-width="1920"
     inkscape:window-height="1017"
     inkscape:window-x="-8"
     inkscape:window-y="-8"
     inkscape:window-maximized="1" />
  <metadata
     id="metadata5">
    <rdf:RDF>
      <cc:Work
         rdf:about="">
        <dc:format>image/svg+xml</dc:format>
        <dc:type
           rdf:resource="http://purl.org/dc/dcmitype/StillImage" />
        <dc:title></dc:title>
      </cc:Work>
    </rdf:RDF>
  </metadata>
  <g
     inkscape:label="Layer 1"
     inkscape:groupmode="layer"
     id="layer1">
    <g
       id="g929"
       transform="matrix(0.26458333,0,0,0.26458333,38.273867,6.4345837)"
       style="fill:#fbb916;fill-opacity:1">
      <g
         id="g870"
         style="fill:#fbb916;fill-opacity:1">
	<g
   id="g868"
   style="fill:#fbb916;fill-opacity:1">
		<path
   id="path862"
   d="m 344.199,143.45 c 0,-42.1 -34.398,-76.5 -76.5,-76.5 -42.099,0 -76.499,34.4 -76.499,76.5 h 38.2 c 0,-21 17.2,-38.2 38.2,-38.2 21,0 38.201,17.2 38.201,38.2 0,21 -17.201,38.2 -38.201,38.2 H 38.2 v 38.2 h 229.499 c 42.102,0.2 76.5,-34.3 76.5,-76.4 z"
   inkscape:connector-curvature="0"
   style="fill:#fbb916;fill-opacity:1" />

		<path
   id="path864"
   d="m 439.801,143.45 c -42.102,0 -76.5,34.4 -76.5,76.5 H 401.6 c 0,-21 17.201,-38.2 38.201,-38.2 21,0 38.199,17.2 38.199,38.2 0,21 -17.1,38.3 -38.199,38.3 H 0 v 38.2 h 439.9 c 42.1,0 76.5,-34.4 76.5,-76.5 0,-42.1 -34.5,-76.5 -76.599,-76.5 z"
   inkscape:connector-curvature="0"
   style="fill:#fbb916;fill-opacity:1" />

		<path
   id="path866"
   d="M 382.5,334.75 H 114.7 v 38.2 h 267.8 c 11.5,0 19.1,7.6 19.1,19.1 0,11.5 -7.6,19.101 -19.1,19.101 -11.5,0 -19.1,-7.601 -19.1,-19.101 h -38.201 c 0,30.601 24.9,57.4 57.4,57.4 32.5,0 57.4,-24.9 57.4,-57.4 0,-32.5 -24.999,-57.3 -57.499,-57.3 z"
   inkscape:connector-curvature="0"
   style="fill:#fbb916;fill-opacity:1" />

	</g>

</g>
      <g
         id="g872"
         style="fill:#fbb916;fill-opacity:1">
</g>
      <g
         id="g874"
         style="fill:#fbb916;fill-opacity:1">
</g>
      <g
         id="g876"
         style="fill:#fbb916;fill-opacity:1">
</g>
      <g
         id="g878"
         style="fill:#fbb916;fill-opacity:1">
</g>
      <g
         id="g880"
         style="fill:#fbb916;fill-opacity:1">
</g>
      <g
         id="g882"
         style="fill:#fbb916;fill-opacity:1">
</g>
      <g
         id="g884"
         style="fill:#fbb916;fill-opacity:1">
</g>
      <g
         id="g886"
         style="fill:#fbb916;fill-opacity:1">
</g>
      <g
         id="g888"
         style="fill:#fbb916;fill-opacity:1">
</g>
      <g
         id="g890"
         style="fill:#fbb916;fill-opacity:1">
</g>
      <g
         id="g892"
         style="fill:#fbb916;fill-opacity:1">
</g>
      <g
         id="g894"
         style="fill:#fbb916;fill-opacity:1">
</g>
      <g
         id="g896"
         style="fill:#fbb916;fill-opacity:1">
</g>
      <g
         id="g898"
         style="fill:#fbb916;fill-opacity:1">
</g>
      <g
         id="g900"
         style="fill:#fbb916;fill-opacity:1">
</g>
    </g>
  </g>
</svg>
