<svg width="32" height="32" xmlns="http://www.w3.org/2000/svg">

 <g>
  <title>background</title>
  <rect fill="none" id="canvas_background" height="402" width="582" y="-1" x="-1"/>
 </g>
 <g>
  <title>Layer 1</title>
  <path id="svg_2" fill="#fbb713" d="m31.67,9.179c0,0 -0.312,-2.353 -1.271,-3.389c-1.217,-1.358 -2.58,-1.366 -3.205,-1.443c-4.477,-0.347 -11.192,-0.347 -11.192,-0.347l-0.015,0c0,0 -6.715,0 -11.191,0.347c-0.625,0.077 -1.987,0.085 -3.205,1.443c-0.958,1.036 -1.271,3.389 -1.271,3.389s-0.32,2.761 -0.32,5.522l0,2.588c0,2.763 0.32,5.523 0.32,5.523s0.312,2.352 1.271,3.386c1.218,1.358 2.815,1.317 3.527,1.459c2.559,0.262 10.877,0.343 10.877,0.343s6.722,-0.012 11.199,-0.355c0.625,-0.08 1.988,-0.088 3.205,-1.446c0.958,-1.034 1.271,-3.386 1.271,-3.386s0.32,-2.761 0.32,-5.523l0,-2.588c0,-2.762 -0.32,-5.523 -0.32,-5.523z"/>
  <polygon id="svg_3" points="12,10 12,22 22,16  " fill="#FFFFFF"/>
 </g>
</svg>